<?xml version="1.0" encoding="UTF-8" standalone="no"?>
<!-- Generator: Adobe Illustrator 19.2.1, SVG Export Plug-In . SVG Version: 6.00 Build 0)  -->

<svg
   xmlns:dc="http://purl.org/dc/elements/1.1/"
   xmlns:cc="http://creativecommons.org/ns#"
   xmlns:rdf="http://www.w3.org/1999/02/22-rdf-syntax-ns#"
   xmlns:svg="http://www.w3.org/2000/svg"
   xmlns="http://www.w3.org/2000/svg"
   xmlns:xlink="http://www.w3.org/1999/xlink"
   xmlns:sodipodi="http://sodipodi.sourceforge.net/DTD/sodipodi-0.dtd"
   xmlns:inkscape="http://www.inkscape.org/namespaces/inkscape"
   version="1.1"
   id="Camada_1"
   x="0px"
   y="0px"
   viewBox="0 0 900 599.99998"
   xml:space="preserve"
   sodipodi:docname="logo.svg"
   width="900"
   height="600"
   inkscape:version="0.92.3 (2405546, 2018-03-11)"><metadata
   id="metadata420"><rdf:RDF><cc:Work
       rdf:about=""><dc:format>image/svg+xml</dc:format><dc:type
         rdf:resource="http://purl.org/dc/dcmitype/StillImage" /><dc:title></dc:title></cc:Work></rdf:RDF></metadata><defs
   id="defs418"><linearGradient
     inkscape:collect="always"
     id="linearGradient5193"><stop
       style="stop-color:#f37425;stop-opacity:1"
       offset="0"
       id="stop5189" /><stop
       style="stop-color:#f3bb25;stop-opacity:1"
       offset="1"
       id="stop5191" /></linearGradient><linearGradient
     inkscape:collect="always"
     xlink:href="#linearGradient5193"
     id="linearGradient5239"
     gradientUnits="userSpaceOnUse"
     x1="1771.2708"
     y1="77.184586"
     x2="1771.2708"
     y2="685.7005"
     gradientTransform="matrix(0.98385902,0,0,0.98039216,-1510.1204,-73.963277)" /></defs><sodipodi:namedview
   pagecolor="#ffffff"
   bordercolor="#666666"
   borderopacity="1"
   objecttolerance="10"
   gridtolerance="10"
   guidetolerance="10"
   inkscape:pageopacity="0"
   inkscape:pageshadow="2"
   inkscape:window-width="1920"
   inkscape:window-height="1030"
   id="namedview416"
   showgrid="false"
   inkscape:zoom="0.41247896"
   inkscape:cx="240.85214"
   inkscape:cy="170.50448"
   inkscape:window-x="0"
   inkscape:window-y="24"
   inkscape:window-maximized="1"
   inkscape:current-layer="Camada_1" />
<style
   type="text/css"
   id="style235">
	.st0{fill:#FFFFFF;stroke:#808080;stroke-miterlimit:10;}
	.st1{fill:#2D2D2D;}
	.st2{font-family:'SourceSansPro-Regular';}
	.st3{font-size:36.2567px;}
	.st4{fill:url(#SVGID_1_);}
	.st5{fill:#373739;}
	.st6{fill:#F37425;}
	.st7{fill:#FEDC00;}
	.st8{fill:url(#SVGID_2_);}
	.st9{fill:url(#SVGID_3_);}
	.st10{fill:url(#SVGID_4_);}
	.st11{fill:#FFFFFF;}
</style>








<linearGradient
   id="SVGID_1_"
   gradientUnits="userSpaceOnUse"
   x1="2352.9946"
   y1="291.73279"
   x2="2352.9946"
   y2="530.9704"
   gradientTransform="matrix(2.5480172,0,0,2.5480172,-4758.4457,-672.7544)">
	<stop
   offset="0"
   style="stop-color:#F37425"
   id="stop253" />
	<stop
   offset="1"
   style="stop-color:#F3BB25"
   id="stop255" />
</linearGradient>













<g
   id="g5330"
   transform="translate(19.05657)"><path
     style="fill:#563d7c;stroke:none;stroke-width:0.98212409;stroke-opacity:1"
     inkscape:connector-curvature="0"
     d="m 880.94343,500 c 0,55 -45.15913,100 -100.35362,100 L 450.94343,599.31922 451.53975,0.08658239 780.58981,1.3766275e-5 C 835.7843,-0.01449604 880.94343,45.000008 880.94343,100.00001 Z"
     id="path5219"
     sodipodi:nodetypes="ssccsss" /><path
     style="fill:#ffffff;stroke-width:0.98039216"
     inkscape:connector-curvature="0"
     d="M 522.99559,128.39216 H 693.0936 c 31.37255,0 56.56863,7.15686 75.4902,21.56862 18.92157,14.41177 28.43137,36.07843 28.43137,65.19608 0,17.64706 -4.31373,32.7451 -12.94118,45.29412 C 775.44654,273 763.0936,282.80392 747.01517,289.66667 v 0.98039 c 21.56863,4.60784 37.94118,14.80392 49.01961,30.58823 11.07843,15.88236 16.66666,35.68628 16.66666,59.60785 0,13.72549 -2.45098,26.56862 -7.35294,38.43137 -4.90196,11.96078 -12.54902,22.2549 -23.03921,30.88235 -10.4902,8.62745 -23.82353,15.4902 -40.19608,20.58824 -16.37255,5.09804 -35.78432,7.64706 -58.33334,7.64706 H 522.99559 Z m 61.27448,146.56862 h 100 c 14.70588,0 26.96079,-4.11764 36.76471,-12.54902 9.80392,-8.43137 14.70588,-20.39215 14.70588,-36.07843 0,-17.64706 -4.41177,-30.09804 -13.23529,-37.2549 -8.82353,-7.15686 -21.56863,-10.78431 -38.2353,-10.78431 h -100 z m 0,153.43138 H 692.6034 c 18.62746,0 33.13726,-4.80393 43.33334,-14.50981 10.29412,-9.60784 15.49019,-23.33333 15.49019,-40.98039 0,-17.35294 -5.09804,-30.58824 -15.49019,-40 -10.39216,-9.41176 -24.70588,-13.92157 -43.33334,-13.92157 H 584.27007 Z"
     id="path5221" /></g><path
   style="fill:url(#linearGradient5239);fill-opacity:1;stroke:none;stroke-width:0.98212403;stroke-opacity:1"
   inkscape:connector-curvature="0"
   d="m 0,500 c 0,55 45.159127,100 100.35362,100 L 430,599.31922 429.40368,0.08658239 100.35362,3.962353e-6 C 45.159127,-0.01451565 0,44.999998 0,99.999998 Z"
   id="path5223"
   sodipodi:nodetypes="ssccsss" /><g
   id="g5237"
   transform="matrix(2.4078145,0,0,2.4078145,-5449.7156,-707.23305)">
	<g
   id="g5229">
		<path
   class="st11"
   d="m 2366.4,377.1 c -36.1,-13.8 -50.4,-33.5 -47.9,-47.8 0,0 -44.8,56.9 21.6,101.7 11.3,7.6 32.4,12.6 37.9,42.3 0,-0.1 61.8,-60.9 -11.6,-96.2 z"
   id="path5225"
   inkscape:connector-curvature="0"
   style="fill:#ffffff" />
		<path
   class="st11"
   d="m 2371.5,474.9 c -1.4,-5.9 -1.6,-20.2 -30.4,-34.1 -15.3,-7.4 -35.2,-30.8 -35.4,-38.7 0,0 -7.2,58.1 39.9,66.7 28,5.1 25.9,6.1 25.9,6.1 z"
   id="path5227"
   inkscape:connector-curvature="0"
   style="fill:#ffffff" />
	</g>
	<g
   id="g5235">
		<g
   id="g5233">
			<path
   class="st11"
   d="m 2424.4,407.7 c 1.8,9.6 1.6,19.3 -0.5,28.8 -2,9.2 -5.8,17.8 -11.1,25.5 -5.4,7.8 -12,14.3 -19.9,19.5 -8.1,5.3 -17.1,9 -26.8,10.7 -9.6,1.8 -19.3,1.6 -28.8,-0.5 -9.2,-2 -17.8,-5.8 -25.5,-11.1 -7.8,-5.4 -14.3,-12 -19.5,-19.9 -5.3,-8.1 -9,-17.1 -10.7,-26.8 -1.8,-9.7 -1.6,-19.4 0.5,-28.9 1.7,-7.7 4.8,-15.3 9.2,-22.6 1,-1.6 3.1,-2.1 4.7,-1 l 0.1,0.1 c 1.5,1 1.9,3 1,4.6 -4,6.6 -6.8,13.4 -8.3,20.4 -1.9,8.6 -2.1,17.4 -0.4,26.1 1.6,8.7 4.9,16.9 9.7,24.2 4.7,7.1 10.6,13.2 17.6,18 7,4.8 14.8,8.2 23.1,10.1 8.6,1.9 17.4,2.1 26.1,0.5 8.7,-1.6 16.9,-4.9 24.2,-9.7 7.1,-4.7 13.2,-10.6 18,-17.6 4.8,-7 8.2,-14.8 10.1,-23.1 1.9,-8.6 2.1,-17.4 0.5,-26.1 -1.6,-8.7 -4.9,-16.9 -9.7,-24.2 -4.7,-7.1 -10.6,-13.2 -17.6,-18 -7,-4.9 -14.8,-8.2 -23.1,-10.1 -7.5,-1.7 -15.4,-2 -22.9,-1 -1.8,0.2 -3.5,-0.9 -3.8,-2.7 v -0.2 c -0.4,-1.9 1,-3.7 2.9,-4 8.6,-1.2 16.9,-0.8 25.3,1.1 9.2,2 17.7,5.8 25.5,11.1 7.8,5.4 14.3,12 19.5,19.9 5.2,8.2 8.9,17.3 10.6,26.9 z"
   id="path5231"
   inkscape:connector-curvature="0"
   style="fill:#ffffff" />
		</g>
	</g>
</g></svg>